<?xml version="1.0" encoding="UTF-8" standalone="no"?>
<!-- Created with Inkscape (http://www.inkscape.org/) -->

<svg
   width="40mm"
   height="40mm"
   viewBox="0 0 40 40"
   version="1.1"
   id="svg2361"
   inkscape:version="1.2.1 (9c6d41e410, 2022-07-14)"
   sodipodi:docname="st.svg"
   xmlns:inkscape="http://www.inkscape.org/namespaces/inkscape"
   xmlns:sodipodi="http://sodipodi.sourceforge.net/DTD/sodipodi-0.dtd"
   xmlns="http://www.w3.org/2000/svg"
   xmlns:svg="http://www.w3.org/2000/svg">
  <sodipodi:namedview
     id="namedview2363"
     pagecolor="#ffffff"
     bordercolor="#cccccc"
     borderopacity="1"
     inkscape:showpageshadow="0"
     inkscape:pageopacity="1"
     inkscape:pagecheckerboard="0"
     inkscape:deskcolor="#d1d1d1"
     inkscape:document-units="mm"
     showgrid="true"
     inkscape:zoom="7.5045454"
     inkscape:cx="60.563295"
     inkscape:cy="62.62871"
     inkscape:window-width="3840"
     inkscape:window-height="2066"
     inkscape:window-x="1909"
     inkscape:window-y="-11"
     inkscape:window-maximized="1"
     inkscape:current-layer="layer1">
    <inkscape:grid
       type="xygrid"
       id="grid3934" />
  </sodipodi:namedview>
  <defs
     id="defs2358" />
  <g
     inkscape:label="Ebene 1"
     inkscape:groupmode="layer"
     id="layer1">
    <path
       style="fill:#ffffff;fill-opacity:1;stroke:#000000;stroke-width:0.600001;stroke-opacity:1"
       d="M 3.9999999,20 20,35.999999 35.999999,20 20,3.9999999 Z"
       id="path6609" />
    <path
       id="path4353"
       style="display:inline;fill:#f4d00e;fill-opacity:1;stroke:#ffffff;stroke-width:0.600001"
       d="M 16.999996 8.0000285 L 5.0002116 19.999813 L 19.999813 34.999931 L 34.999931 19.999813 L 23.000146 8.0000285 L 16.999996 8.0000285 z M 20.510376 15.463656 C 20.832837 15.463656 21.149098 15.498796 21.459155 15.569076 C 21.773348 15.639355 22.08134 15.744775 22.38313 15.885335 C 22.689054 16.021761 22.988778 16.195394 23.2823 16.406234 L 22.562964 17.410824 C 22.219833 17.158642 21.8767 16.97054 21.533569 16.846517 C 21.194572 16.71836 20.853507 16.654281 20.510376 16.654281 C 19.894394 16.654281 19.414836 16.778304 19.071704 17.026351 C 18.732707 17.270263 18.563208 17.61753 18.563208 18.068148 L 18.563208 18.074349 C 18.563208 18.384407 18.650025 18.628321 18.823657 18.806087 C 19.001424 18.983854 19.220532 19.116146 19.480981 19.202962 C 19.745565 19.285645 20.111435 19.372462 20.578589 19.463411 C 20.595129 19.467545 20.609597 19.47168 20.621997 19.475814 C 20.63853 19.475814 20.655066 19.477882 20.671606 19.482015 C 20.69228 19.486148 20.715019 19.490284 20.739819 19.494417 C 20.764626 19.498551 20.787366 19.502686 20.808032 19.50682 C 21.353735 19.61844 21.808488 19.750732 22.17229 19.903695 C 22.540226 20.056657 22.84615 20.304704 23.090063 20.647835 C 23.33811 20.986832 23.462134 21.451921 23.462134 22.043099 L 23.462134 22.055501 C 23.462134 22.605338 23.331909 23.076628 23.07146 23.469368 C 22.811011 23.857975 22.432738 24.155632 21.936646 24.362337 C 21.444686 24.564909 20.849373 24.666195 20.150708 24.666195 C 19.716626 24.666195 19.305281 24.624854 18.916675 24.542171 C 18.528069 24.459489 18.164266 24.335465 17.825269 24.170101 C 17.490406 24.004736 17.176212 23.79803 16.88269 23.549984 L 17.670239 22.582601 C 18.013371 22.880257 18.391643 23.1035 18.805054 23.252327 C 19.218465 23.401156 19.667017 23.47557 20.150708 23.47557 C 20.803897 23.47557 21.310327 23.35568 21.669995 23.115902 C 22.029663 22.871989 22.209497 22.528857 22.209497 22.086507 L 22.209497 22.080306 C 22.209497 21.766114 22.126815 21.518067 21.96145 21.336165 C 21.80022 21.150131 21.58938 21.013705 21.328931 20.926888 C 21.072616 20.835937 20.739819 20.753255 20.330542 20.678841 C 20.318142 20.674708 20.303674 20.67264 20.287134 20.67264 C 20.274734 20.67264 20.262333 20.670572 20.249927 20.666439 L 20.156909 20.647835 C 19.553329 20.544483 19.061369 20.428727 18.68103 20.30057 C 18.304827 20.168278 17.982365 19.930566 17.713647 19.587435 C 17.44493 19.240169 17.310571 18.748209 17.310571 18.111556 L 17.310571 18.105355 C 17.310571 17.54725 17.434595 17.071826 17.682642 16.679085 C 17.934822 16.282211 18.300692 15.98042 18.780249 15.773714 C 19.259806 15.567009 19.836516 15.463656 20.510376 15.463656 z " />
  </g>
</svg>
