<?xml version="1.0" encoding="UTF-8" standalone="no"?>
<!DOCTYPE svg PUBLIC "-//W3C//DTD SVG 1.1//EN" "http://www.w3.org/Graphics/SVG/1.1/DTD/svg11.dtd">
<svg width="456" height="456" viewBox="0 0 456 456" version="1.1" xmlns="http://www.w3.org/2000/svg" xmlns:xlink="http://www.w3.org/1999/xlink" xml:space="preserve" xmlns:serif="http://www.serif.com/" style="fill-rule:evenodd;clip-rule:evenodd;stroke-linejoin:round;stroke-miterlimit:2;">
    <path style="fill:#ffffff;fill-rule:nonzero;stroke-width:0" d="m 198.91685,37.227693 c 0,0 46.19935,79.617837 -31.405,119.025817 -68.019867,34.54093 -80.149776,54.95121 -80.022966,93.69796 0.12663,38.74675 51.407796,70.02634 80.657736,70.27996 29.25003,0.25264 148.14745,-0.25601 148.14745,-0.25601 0,0 -37.85804,-7.59734 -73.94573,-17.47401 -36.08767,-9.87657 -30.51927,-42.28976 -30.51927,-42.28976 0,0 -14.94027,8.73353 -15.44655,23.29525 -0.50647,14.56171 13.9311,21.14999 13.9311,21.14999 0,0 -101.04713,3.41897 -100.28722,-59.51293 0.56413,-46.7289 46.82104,-53.56723 84.45666,-80.15602 43.17786,-30.50432 38.23998,-70.909674 38.23998,-70.909674 0,0 16.71232,21.908794 16.83914,44.194364 0.12661,22.28578 -14.30481,47.60928 -14.30481,47.60928 0,0 55.0822,-28.61863 26.08559,-86.612124 C 242.40908,61.402222 198.91685,37.227693 198.91685,37.227693 Z m 133.67868,14.192159 c -5.22589,0.281367 -5.19309,9.125379 -6.95781,9.461444 -1.88025,0.358644 -7.08256,-5.985007 -12.18006,-5.54988 -7.34193,0.627145 -9.21792,6.983591 -8.94941,10.83353 0.26849,3.85015 8.85955,11.46127 8.59106,12.08791 -0.26849,0.62715 -7.24999,0.96311 -7.2497,5.64211 3e-4,5.21094 8.05884,9.12954 12.08792,10.38304 4.02916,1.25349 11.81654,3.58462 11.81654,4.658983 0,1.074461 -9.04166,0.983814 -9.04166,6.625121 0,1.9697 4.74587,7.96968 11.72956,8.95458 6.98378,0.9848 17.01312,0.26977 17.19244,0.89593 0.17933,0.62714 -7.50462,3.61672 -5.46289,7.70019 2.86515,5.73029 19.25053,6.35693 19.25053,7.34183 0,0.98481 -9.31342,-0.45069 -10.02974,3.39965 -0.17932,1.70121 0.80449,4.65552 8.86244,7.16261 3.09163,0.96202 6.59689,2.25514 9.75331,3.48149 -0.17239,-3.43026 0.21094,-7.65927 2.61617,-10.89505 -3.17485,-6.47562 -7.2815,-14.13153 -11.8319,-20.87862 -5.52877,-8.19784 -25.60428,-31.179804 -25.60428,-31.179804 0,0 18.57453,15.51045 29.00898,30.283874 2.62658,3.71876 7.17202,11.78653 11.19198,19.16859 3.10847,-2.05016 6.29402,-2.92588 9.19513,-2.88249 0.86095,0.009 1.68883,0.10438 2.4832,0.25601 0.35866,-1.88727 0.67074,-3.61217 0.85502,-4.81265 0.89554,-5.81985 5.21252,-14.28005 -0.71681,-18.62595 -5.6311,-4.12795 -10.11532,4.9247 -11.63741,4.02936 -1.52219,-0.89563 4.20641,-9.400897 4.29559,-14.325304 0.0892,-4.92451 -1.5214,-13.09213 -6.4459,-15.40048 -4.92453,-2.30834 -9.03978,9.58162 -10.02459,9.31303 -0.98481,-0.2685 1.0711,-12.08633 0.26621,-17.27943 -0.80548,-5.1931 -4.97435,-12.879027 -11.72955,-11.729554 -4.46372,0.759901 -5.19538,12.533554 -7.07563,12.712574 -1.88024,0.17933 -5.0102,-19.517725 -13.15792,-20.771222 -0.19814,-0.02977 -0.39333,-0.05149 -0.5786,-0.06141 -0.18031,-0.0093 -0.35378,-0.0093 -0.52222,0 z m 53.93749,79.659458 c -2.30052,-0.0396 -4.84515,0.63705 -7.53127,2.41653 -7.1629,4.74539 -2.68789,18.44673 -2.68789,18.44673 0,0 -10.47479,-6.80822 -17.10031,2.32439 -6.62573,9.13261 18.17546,32.32661 18.17546,32.32661 0,0 -15.85086,-6.26995 -19.34276,-3.58384 -3.49199,2.68611 -1.43163,12.80314 1.43352,17.99623 2.86514,5.19311 20.77626,17.19236 20.77626,17.19236 0,0 -7.52552,-0.26851 -10.30109,3.85014 -2.77568,4.11863 2.42168,12.44696 6.27182,17.19234 2.17519,2.68105 5.00308,8.96904 7.08078,13.97716 2.67521,-2.80629 6.19375,-5.62685 10.48537,-5.81103 0.33389,-0.0105 0.67074,-0.0105 1.01374,0.005 0.6747,-9.51702 1.73698,-25.41534 2.09909,-36.64775 0.53699,-16.65367 -2.05817,-41.90069 -2.05817,-41.90069 0,0 5.55254,25.51918 6.17969,43.42634 0.41314,11.81952 -0.57365,27.20197 -1.29531,36.39184 3.01069,1.34098 5.65618,3.58711 7.82304,6.25122 2.71267,-2.6021 5.69699,-5.37728 7.88457,-7.09603 5.01407,-3.93961 9.40378,-9.22287 7.43398,-12.26713 -1.96981,-3.04417 -11.99687,1.61075 -13.60852,-0.89594 -1.61165,-2.50698 8.86383,-8.15068 14.68367,-11.82169 5.81985,-3.67092 11.01057,-11.90473 7.78728,-17.1873 -3.2233,-5.28266 -18.71334,2.23692 -19.60898,1.52061 -0.89563,-0.71632 5.82332,-4.47689 16.38855,-15.22125 10.56524,-10.74427 2.50541,-19.87727 -6.17959,-19.07139 -8.68509,0.80548 -13.25342,4.02867 -14.23823,2.9542 -0.98479,-1.07446 10.47517,-12.1751 10.47517,-19.87518 0,-7.70009 -4.47203,-9.75857 -7.87435,-9.9376 -3.40233,-0.17933 -7.87942,3.67092 -7.87942,3.67092 0,0 -4.208,-11.01503 -7.34184,-14.41745 -1.9586,-2.12645 -5.11017,-4.14985 -8.94426,-4.20851 z M 25.600367,184.08489 c 0,0 -8.200422,47.91354 5.191516,88.28125 10.710573,32.285 30.981268,65.90175 70.377137,94.91133 59.67589,43.94332 106.36724,38.85969 119.85012,39.03872 13.48279,0.17933 12.84049,-5.73415 12.84049,-5.73415 0,0 12.58616,4.92382 27.04294,-2.68284 22.04364,-11.59859 6.80425,-15.40048 6.80425,-15.40048 0,0 8.76356,-6.57262 13.77754,-12.3029 5.01388,-5.73028 9.0475,-12.04422 6.0926,-13.49586 -1.61006,-0.79062 -5.72405,0.72701 -5.72405,0.72701 0,0 4.9373,-7.00438 1.91998,-10.44961 -1.63345,-1.86508 -12.02044,-1.87054 -17.86823,5.59088 -4.45836,5.68858 -10.55196,17.39207 -10.55196,17.39207 0,0 2.00528,-12.16399 -1.2851,-13.77743 -4.00193,-1.96256 -6.4773,2.74685 -9.99902,8.58592 -4.09872,6.79574 -13.87987,11.46335 -13.87987,11.46335 0,0 6.38101,-6.25588 4.2086,-8.95468 -1.00432,-1.24765 -7.72011,-1.95276 -13.37817,3.01564 -5.12335,4.49888 -3.63297,8.89552 -10.61338,12.20561 -3.05279,1.44768 -8.05864,0.89603 -8.05864,0.89603 0,0 1.07358,-2.86762 -1.25439,-3.58393 -2.32796,-0.7163 -6.092,4.11864 -12.71762,7.52107 -6.62573,3.40232 -19.33771,0.001 -19.51674,1.97108 -0.17933,1.96981 19.53357,7.87466 50.13846,6.80427 23.53272,-0.82332 44.67261,-22.06108 46.55968,-20.05432 1.86548,1.98387 -20.53562,16.47781 -33.15091,20.27455 -13.83984,4.16531 -39.99786,3.89701 -61.39692,-2.37056 C 144.42475,386.17083 104.14076,368.70088 61.59283,318.92583 24.166655,275.14271 25.600367,184.08489 25.600367,184.08489 Z m 176.291103,3.31763 -1.83803,4.04977 -26.84331,-0.25086 -0.63477,3.03605 c 0,0 -3.66904,0.75891 -6.32811,0.88573 -2.65906,0.12681 -6.96297,2.15556 -6.96297,4.05493 0,1.89936 3.79883,5.57038 3.79883,5.57038 l 1.39259,3.54806 0.50181,-4.05493 c 0,0 4.94264,-0.63299 6.0823,1.89946 1.13965,2.53245 0.63308,5.57107 0,6.58411 -0.63309,1.01295 -6.84101,2.27842 -6.46116,4.17779 0.37946,1.89936 1.64632,2.02608 3.79892,1.89946 2.1526,-0.12682 4.81256,-2.02232 4.81256,-2.02232 v 6.58411 l -15.95332,-0.50687 -2.66233,-4.68464 -17.218,-0.50687 -1.77146,6.83497 h 9.62016 l 28.87078,20.51511 -8.61158,8.99044 c 0,0 -14.94196,0.75911 -17.98088,4.17778 -3.03902,3.41878 -3.03604,7.59785 -3.03604,7.59785 h 34.81991 l 30.77024,-12.78936 h 16.71619 l 24.81584,-16.20933 7.85386,0.12791 v 16.96714 c 0,0 -11.39666,0.88523 -14.68882,3.16405 -3.29226,2.27923 -3.54807,8.36073 -3.54807,8.36073 h 29.24964 l 0.128,-8.36073 12.02639,-16.71113 18.87175,12.40535 v 3.54806 l -5.06866,3.54292 v 5.69838 H 320.3489 V 244.6371 l -7.59774,-0.128 -5.06866,-3.67092 c 0,0 0.50756,-8.05587 -1.77146,-13.42413 -2.27921,-5.36827 -3.92693,-7.34184 -3.92693,-7.34184 0,0 7.09584,-7.60042 6.58926,-16.33743 -0.50626,-8.737 -15.07095,-14.81434 -24.821,-13.16821 -9.75003,1.64602 -43.56038,16.46126 -53.56366,16.08141 -10.00318,-0.37946 0,-18.23174 0,-18.23174 0,0 -16.20526,6.20436 -15.82531,13.67509 0.37945,7.47083 6.58381,13.41927 20.2591,12.02648 13.67529,-1.39288 44.06726,-16.7145 52.17108,-16.08141 8.10391,0.63308 12.66136,2.65847 12.66136,7.97671 0,5.31813 -5.57038,9.4973 -5.57038,9.4973 0,0 -6.20476,-3.66814 -16.08142,-3.4149 -9.87656,0.25363 -31.65993,8.22756 -47.61443,8.22756 -15.9545,0 -22.03056,-3.92693 -22.03056,-3.92693 0,0 -0.5044,-8.10154 -2.65718,-12.53335 -2.1526,-4.43182 -3.6095,-7.46985 -3.6095,-7.46985 0,0 2.21382,-1.52 1.45403,-4.30578 -0.7599,-2.78568 -1.45403,-4.68464 -1.45403,-4.68464 z m 192.79738,62.97904 v 0.005 c -7.69811,-0.35666 -14.82703,12.35929 -14.82703,12.35929 0,0 -6.96466,-7.85445 -14.68872,-6.96813 -7.72407,0.88672 -5.82569,12.79253 -4.81266,20.64311 1.01274,7.85059 -0.128,23.42326 -0.128,23.42326 0,0 -7.59705,-14.3058 -11.77564,-13.92595 -4.17847,0.37946 -7.08978,5.31507 -6.96297,16.71114 0.12681,11.39617 0.75773,29.24964 0.75773,29.24964 0,0 -5.19142,-10.38264 -10.38303,-9.87617 -5.19152,0.50628 -5.5687,6.45809 -6.83497,16.08132 -1.26598,9.62343 -1.3926,19.88034 -1.3926,19.88034 0,0 -4.43122,-10.00041 -9.87606,-10.12703 -5.44476,-0.12681 -5.44734,7.72358 -13.93111,22.15866 -8.48377,14.43489 -25.70662,27.47294 -25.70662,27.47294 0,0 38.48607,-13.32981 71.0683,-44.12265 28.51985,-26.95328 39.84726,-62.86619 42.89391,-61.98581 3.66874,1.0602 -15.22313,52.86599 -65.71807,86.48423 -40.78015,27.15014 -65.2418,35.62886 -107.69048,35.62886 -109.8201,0 -165.815929,-90.70798 -165.815929,-90.70798 h -0.378865 c 0,0 18.270174,38.49847 48.925088,60.04018 18.823786,13.22787 64.030516,38.65045 116.952276,38.09157 61.15656,-0.64597 95.85342,-26.33645 95.85342,-26.33645 0,0 11.39638,0.12405 16.08133,0.25087 4.68504,0.12681 16.71232,-0.37947 16.83913,-6.07726 0.12682,-5.69798 -7.08919,-6.58578 -6.4561,-9.11833 0.63309,-2.53246 31.74147,5.59158 33.80629,-1.78177 2.27445,-8.12184 -11.77504,-7.58506 -12.15449,-11.13045 -0.37946,-3.54549 19.88341,-1.39438 32.92561,-7.21899 13.0423,-5.82469 9.27388,-13.73067 -2.53434,-14.43796 -6.13114,-0.36756 -7.47102,-1.39001 -7.59785,-4.93551 -0.12681,-3.54539 17.72498,-1.26468 24.81585,-3.16405 7.09098,-1.89935 15.4527,-5.32279 14.56597,-15.07273 -0.88671,-9.75005 -25.57991,-4.68138 -25.70672,-7.21383 -0.12682,-2.53245 12.53354,-3.41828 21.52378,-7.9767 8.99024,-4.55854 8.10729,-11.4377 4.56181,-15.45171 -3.54539,-4.01401 -18.74376,2.66234 -18.74376,2.66234 0,0 7.72644,-14.68853 8.23272,-23.1723 0.50627,-8.48377 -6.96238,-18.99303 -14.93969,-20.25919 -0.24967,-0.0396 -0.49983,-0.072 -0.74751,-0.082 z"/>
</svg>